#!OML:ASF Y:\EmotionMaleHayes\Project 1\Capture day 1\Session 1\Male1.ASF
:FULLY-SPECIFIED
:DEGREES
510
root -3.94965 16.6035 -0.718656 215.537 99.9013 219.757
lowerback 7.17966 3.94997 -8.25052
upperback 8.55459 5.67732 -5.02226
thorax 4.76278 2.78224 -0.832404
lowerneck -23.4145 0.388674 1.36588
upperneck 21.0258 1.22538 -4.12544
head 10.6705 0.174527 -1.51696
rclavicle 1.78906e-014 -5.96354e-014
rhumerus -26.5174 23.7607 -96.7777
rradius 33.6638
rwrist 0.433627
rhand -7.17352 -32.64
rfingers 7.12502
rthumb 18.7039 -61.7608
lclavicle 1.78906e-014 -5.96354e-014
lhumerus -20.7965 -9.23704 87.5795
lradius 29.2201
lwrist 22.183
lhand -19.0715 -17.1766
lfingers 7.12502
lthumb 7.23613 12.6797
rfemur 4.17412 2.50332 9.57495
rtibia 57.3754
rfoot -2.76352 -6.2283
rtoes 17.815
lfemur -9.75861 -0.137805 -27.0768
ltibia 26.0269
lfoot -14.2159 6.04482
ltoes -5.02955
511
root -3.81913 16.6298 -0.74064 218.147 99.9336 222.583
lowerback 7.201 3.80782 -8.56731
upperback 8.70899 5.51331 -5.12234
thorax 4.91655 2.6877 -0.754761
lowerneck -23.4372 0.492346 1.63798
upperneck 21.1454 1.3805 -4.49968
head 10.7292 0.220443 -1.67471
rclavicle -3.97569e-016 6.04305e-014
rhumerus -26.657 23.7225 -96.878
rradius 33.6571
rwrist 0.70893
rhand -7.26854 -32.2754
rfingers 7.12502
rthumb 18.6125 -61.4049
lclavicle -3.97569e-016 6.04305e-014
lhumerus -20.4745 -9.35121 87.4853
lradius 29.3729
lwrist 20.7581
lhand -19.9013 -17.8382
lfingers 7.12502
lthumb 6.43511 12.044
rfemur 3.2072 1.91055 8.93295
rtibia 58.514
rfoot -3.03673 -5.98665
rtoes 20.3786
lfemur -8.56929 -0.210163 -27.7458
ltibia 25.1748
lfoot -14.2443 5.87854
ltoes -5.70205
512
root -3.69348 16.6584 -0.767883 220.131 100.001 224.676
lowerback 7.13015 3.6694 -8.75422
upperback 8.80988 5.3582 -5.20412
thorax 5.07072 2.60118 -0.724092
lowerneck -23.2481 0.576143 1.8499
upperneck 21.1708 1.51219 -4.81254
head 10.7134 0.26209 -1.80174
rclavicle -1.19271e-014 -5.24792e-014
rhumerus -26.8333 23.7661 -96.9573
rradius 33.5928
rwrist 1.02732
rhand -7.51729 -31.5997
rfingers 7.12502
rthumb 18.3732 -60.752
lclavicle -1.19271e-014 -5.24792e-014
lhumerus -20.0991 -9.47835 87.415
lradius 29.3736
lwrist 19.1074
lhand -20.7575 -19.0051
lfingers 7.12502
lthumb 5.60844 10.9006
rfemur 2.00505 1.29918 8.3894
rtibia 59.6521
rfoot -3.39245 -5.88598
rtoes 20.4968
lfemur -7.516 -0.318352 -28.3377
ltibia 24.2951
lfoot -14.2711 5.83829
ltoes -5.44276
513
root -3.57094 16.6881 -0.796006 221.815 100.226 226.419
lowerback 6.87565 3.55561 -9.03774
upperback 8.98845 5.26942 -5.26791
thorax 5.40345 2.53458 -0.610707
lowerneck -23.0787 0.668532 1.86633
upperneck 21.0564 1.6646 -4.93291
head 10.648 0.321189 -1.82157
rclavicle 7.15625e-015 4.77083e-015
rhumerus -26.7805 23.8497 -96.9027
rradius 33.5265
rwrist 1.1448
rhand -7.86633 -31.3116
rfingers 7.12502
rthumb 18.0374 -60.4952
lclavicle 7.15625e-015 4.77083e-015
lhumerus -19.3257 -9.58524 87.3708
lradius 29.1406
lwrist 17.203
lhand -21.376 -19.738
lfingers 7.12502
lthumb 5.01134 10.1827
rfemur 0.649615 0.788865 7.81408
rtibia 60.8021
rfoot -3.69667 -5.90147
rtoes 19.8324
lfemur -6.5861 -0.396698 -28.9932
ltibia 23.5277
lfoot -14.3325 5.77187
ltoes -4.50349
514
root -3.45179 16.7167 -0.820052 222.968 100.388 227.612
lowerback 7.14443 3.53701 -9.16219
upperback 8.84854 5.19173 -5.3742
thorax 5.10732 2.50548 -0.674703
lowerneck -22.8367 0.710233 1.91234
upperneck 21.1293 1.71821 -4.93913
head 10.6326 0.352864 -1.82265
rclavicle -1.03368e-014 1.27222e-014
rhumerus -27.1827 23.4248 -97.1224
rradius 33.3367
rwrist 1.20304
rhand -8.47685 -31.2783
rfingers 7.12502
rthumb 17.45 -60.5151
lclavicle -1.03368e-014 1.27222e-014
lhumerus -19.1545 -10.0435 87.2994
lradius 29.1856
lwrist 15.2248
lhand -21.625 -19.8697
lfingers 7.12502
lthumb 4.77084 10.0566
rfemur -0.723014 0.362875 7.4099
rtibia 61.8516
rfoot -3.91962 -5.85729
rtoes 21.2634
lfemur -5.79421 -0.378553 -29.4688
ltibia 22.9892
lfoot -14.4566 5.72343
ltoes -4.97444
515
root -3.33037 16.7447 -0.844036 223.636 100.358 228.329
lowerback 7.10107 3.40924 -9.15819
upperback 8.93866 5.04257 -5.36865
thorax 5.2375 2.42716 -0.659535
lowerneck -22.7566 0.835581 1.9939
upperneck 21.0875 1.88825 -5.03113
head 10.6114 0.427323 -1.84198
rclavicle 2.14687e-014 -1.03368e-014
rhumerus -27.2853 23.1519 -97.1355
rradius 33.2556
rwrist 1.01994
rhand -8.52129 -31.3766
rfingers 7.12502
rthumb 17.4072 -60.6172
lclavicle 2.14687e-014 -1.03368e-014
lhumerus -18.8355 -10.4647 87.2507
lradius 29.3472
lwrist 13.428
lhand -22.0976 -20.2545
lfingers 7.12502
lthumb 4.31455 9.68156
rfemur -2.00921 -0.0746825 7.25857
rtibia 62.711
rfoot -4.21584 -5.71354
rtoes 21.7859
lfemur -4.92832 -0.314453 -29.7037
ltibia 22.3706
lfoot -14.6493 5.58516
ltoes -5.11514
